# xmcd
#
# Track frame offsets:
#	150
#	13850
#	35623
#	58210
#	95225
#	113780
#	140083
#	167668
#	192958
#	214258
#	240343
#	269675
#	284793
#	305643
#
# Disc length: 4282 seconds
#
# Revision: 0
# Processed by: cddbd v1.5.2PL0 Copyright (c) Steve Scherf et al.
# Submitted via: EasyCDDAExtractor 10.0.1.1
#
DISCID=e210b80e
DTITLE=Eric Clapton - Alternative Tracks Disc 1
DYEAR=1900
DGENRE=Blues
TTITLE0=You Dont Know Like I Know
TTITLE1=Shes Waiting
TTITLE2=Heaven Is One Step Away
TTITLE3=Same Old Blues
TTITLE4=One Jump Ahead of the Storm (Take 1)
TTITLE5=Jailbait (Take 1)
TTITLE6=Never Make You Cry
TTITLE7=Just Like A Prisoner
TTITLE8=Heaven Is One Step Away
TTITLE9=One Jump Ahead Of The Storm (Take 2)
TTITLE10=Jailbait (Take 2)
TTITLE11=One More Chance
TTITLE12=Roll It Over
TTITLE13=Tell The Truth
EXTD=
EXTT0=
EXTT1=
EXTT2=
EXTT3=
EXTT4=
EXTT5=
EXTT6=
EXTT7=
EXTT8=
EXTT9=
EXTT10=
EXTT11=
EXTT12=
EXTT13=
PLAYORDER=
